<?xml version="1.0" encoding="UTF-8"?>
<svg id="Layer_1" data-name="Layer 1" xmlns="http://www.w3.org/2000/svg" version="1.1" viewBox="0 0 323 78">
  <defs>
    <style>
      .cls-1 {
        fill: #ffc82e;
        stroke-width: 0px;
      }

      .cls-2 {
        fill: #000;
        font-family: SourceSansPro-Black, 'Source Sans Pro';
        font-size: 60.8px;
        font-weight: 800;
      }

      @media (prefers-color-scheme: dark) {
        .cls-2 {
          fill: #fff;
        }
      }

      .cls-2, .cls-3 {
        isolation: isolate;
      }
    </style>
  </defs>
  <g id="Group">
    <g id="Demokratis" class="cls-3">
      <g class="cls-3">
        <text class="cls-2" transform="translate(-2.9 55.1)"><tspan x="0" y="0">Demokratis</tspan></text>
      </g>
    </g>
    <g id="Vector-">
      <path id="Path" class="cls-1" d="M276.6,68.3c1.8,0,3.6,0,5.5-.2,4,0,8.1,0,11.7-.2-10.9-.3-21.9-.2-30.7-.2h-38.5c-30.2,0-71.4,0-112.3.2-12.1,0-24.2.2-36.2.4-4.5,0-9,0-13.6.2-7.9,0-15.9.2-23.8.4-6.7,0-15,.6-22.2.5-8.3,0-14-.8-15.8-2.3-.7-.5-1.1-1.3.4-1.8,1.5-.5,2.3-.6,3.2-.7,2.2-.3,4.8-.5,6.1-.5h52.5c12.3,0,24.5,0,40.7,0s77.3.3,96.6.3,25.6.2,38.4.5c10.6.2,21.3.5,32.2.7,10.5.2,16.8.3,27.5.6,1.7,0,3.6,0,5.7,0,1.8,0,4,0,5.8,0,1.7,0,4.1.3,7.3,1,.2,1-1.3,1.6-3.7,1.6-2.2.2-3.9.3-5,.3-4.3.2-8.3.2-11.4,0-2,0-8.2,0-13.5.3-4,0-6.2,0-12.3,0-3.2-.2-3.3-.6.5-1,1.7,0,3.6-.3,5-.3v-.2Z"/>
    </g>
  </g>
</svg>
